<svg version="1.1" id="Layer_1" xmlns="http://www.w3.org/2000/svg" xmlns:xlink="http://www.w3.org/1999/xlink" x="0px" y="0px"
	 width="100%" viewBox="0 0 1024 1024" enable-background="new 0 0 1024 1024" xml:space="preserve">
<path fill="#000000" opacity="1.000000" stroke="none" 
	d="
M471.000000,1025.000000 
	C314.000000,1025.000000 157.500000,1025.000000 1.000000,1025.000000 
	C1.000000,683.666687 1.000000,342.333344 1.000000,1.000000 
	C342.333344,1.000000 683.666687,1.000000 1025.000000,1.000000 
	C1025.000000,342.333344 1025.000000,683.666687 1025.000000,1025.000000 
	C840.500000,1025.000000 656.000000,1025.000000 471.000000,1025.000000 
M282.711761,358.737549 
	C259.434082,348.751648 230.483124,357.544342 214.461868,379.490845 
	C204.436707,393.223724 199.548950,408.701660 199.028793,425.607971 
	C198.454330,444.278748 201.473022,462.352356 207.975220,479.753479 
	C219.676788,479.753479 231.073196,479.753479 243.030380,479.753479 
	C235.228516,468.512939 229.954651,456.819733 228.881500,443.384644 
	C240.448532,443.384644 251.377411,443.384644 262.897491,443.384644 
	C262.233551,455.776917 264.835388,468.106262 259.142975,479.814178 
	C271.264038,479.814178 283.038177,479.814178 294.872131,479.814178 
	C291.855286,470.518768 289.999969,415.457245 292.276276,403.772614 
	C297.644165,403.549500 301.290070,406.233948 302.913269,411.062469 
	C304.111023,414.625549 304.789368,418.516968 304.858795,422.277588 
	C305.092499,434.935791 305.211761,447.608521 304.844086,460.260254 
	C304.654724,466.776489 303.342590,473.260071 302.534760,479.782776 
	C312.515472,479.782776 323.544098,479.782776 334.371002,479.782776 
	C333.433899,476.288574 331.848846,472.974579 331.764740,469.622925 
	C331.363953,453.649414 331.167480,437.663330 331.350769,421.686920 
	C331.409698,416.549469 335.257751,413.877655 340.166809,412.952148 
	C347.918060,411.490814 354.945648,413.274750 361.347717,418.105682 
	C363.057037,410.998810 364.277710,404.123871 366.442261,397.560211 
	C367.872711,393.222748 366.454254,391.336426 362.729950,390.120117 
	C361.313110,389.657379 359.871124,389.199310 358.404480,388.973389 
	C349.235352,387.560883 341.499054,391.810425 335.968414,401.389954 
	C334.333405,404.221954 333.016235,407.237396 331.553375,410.168793 
	C331.289642,410.092834 331.025940,410.016907 330.762207,409.940948 
	C330.762207,403.066681 330.762207,396.192413 330.762207,388.883759 
	C318.335846,395.748749 306.002106,401.370789 291.666199,403.141663 
	C291.666199,393.043823 291.205109,383.063232 291.821716,373.149658 
	C292.262787,366.058350 289.605011,361.713165 282.711761,358.737549 
M533.701599,481.843201 
	C539.346924,481.556702 545.048523,481.674072 550.625488,480.896851 
	C561.165955,479.427856 571.019287,475.956482 578.925598,468.457916 
	C580.087524,467.355896 581.104126,464.900696 580.684509,463.532959 
	C578.560181,456.609985 575.939209,449.839417 573.476074,442.969940 
	C552.228088,460.547424 529.811096,461.833191 515.251282,446.396759 
	C501.984314,432.331024 501.909271,404.418365 515.069702,390.320801 
	C521.812500,383.097870 530.348206,379.726959 539.965698,379.209442 
	C553.416199,378.485687 564.694214,383.275238 573.389221,394.113098 
	C575.509094,387.941772 576.904785,382.035492 579.532104,376.740326 
	C582.240967,371.280792 580.360413,368.501709 576.011902,365.350830 
	C557.729553,352.103882 525.259216,351.061218 505.297607,363.373322 
	C482.681488,377.322693 471.849731,405.614136 478.177582,434.208344 
	C484.190216,461.378143 503.917419,478.578796 533.701599,481.843201 
M829.387451,467.154694 
	C824.774963,465.295624 823.697266,461.217926 823.564392,456.976349 
	C823.246460,446.826874 823.250122,436.667236 823.137817,426.511505 
	C822.979126,412.164490 816.241882,401.791656 803.826233,395.037659 
	C792.266479,388.749268 779.775879,387.376892 766.992737,389.412842 
	C757.378052,390.944183 749.153442,395.411377 743.060913,403.051270 
	C747.300720,409.780029 751.368286,416.235474 755.430725,422.682800 
	C765.188782,413.324951 774.949829,410.463379 784.543701,414.169586 
	C790.744568,416.565063 794.997925,422.051575 795.271667,428.007721 
	C782.360962,425.283875 774.300415,425.854584 765.154907,430.140045 
	C751.877930,436.361420 744.437500,447.665009 745.044739,460.691437 
	C745.530457,471.108917 750.916077,478.452576 759.796936,480.941345 
	C767.821228,483.190063 778.374329,482.061340 784.075073,471.410645 
	C787.603271,464.818878 792.097961,458.744507 796.158752,452.437866 
	C797.009460,457.004456 796.527710,461.217926 797.140320,465.265839 
	C797.797424,469.607971 798.992676,474.027985 800.871460,477.977112 
	C802.460754,481.317780 805.747498,483.103424 809.690002,481.090271 
	C817.501892,477.101318 825.263489,473.013641 833.730713,468.610626 
	C831.895203,468.017090 830.984619,467.722656 829.387451,467.154694 
M711.875732,441.512573 
	C713.353760,441.271301 714.846558,441.097382 716.307556,440.778198 
	C729.428955,437.911652 737.109436,430.195099 738.558777,418.461945 
	C739.823608,408.222137 733.246826,397.627319 722.255737,392.198364 
	C701.555725,381.973816 673.906067,392.564484 664.866577,414.125610 
	C661.440918,422.296814 660.622559,430.809601 660.983704,439.555542 
	C661.939758,462.706116 675.795593,478.238159 698.598206,481.605469 
	C714.764099,483.992706 731.409424,476.585205 738.448547,463.947632 
	C733.349121,458.257446 728.274658,452.595154 722.922729,446.623230 
	C716.907410,454.914062 708.971252,458.672424 698.776123,454.983490 
	C693.038086,452.907288 689.888306,448.469849 688.539185,441.665161 
	C696.414062,441.665161 703.700256,441.665161 711.875732,441.512573 
M374.673523,389.379669 
	C373.941833,390.190216 372.592529,390.987427 372.574768,391.813354 
	C372.411285,399.408325 372.478424,407.008240 372.478424,414.674377 
	C375.267731,414.822540 377.393463,414.935425 380.016388,415.074738 
	C380.016388,417.011505 380.007568,418.800018 380.017822,420.588409 
	C380.081665,431.743805 379.644043,442.929962 380.320099,454.048309 
	C381.803131,478.437256 406.564331,490.481781 426.947174,476.948212 
	C428.071167,476.201904 429.382690,474.326050 429.184479,473.234192 
	C428.071930,467.106262 426.522614,461.057648 425.062775,454.723419 
	C424.003082,455.418091 423.222229,455.984680 422.391846,456.465759 
	C414.604767,460.977051 407.823578,458.051270 406.675354,449.240784 
	C405.948578,443.663940 406.178040,437.954926 406.097473,432.303528 
	C406.015503,426.555023 406.079376,420.804413 406.079376,414.642822 
	C412.927277,414.642822 419.007080,414.642822 425.179077,414.642822 
	C425.179077,406.448120 425.179077,398.698303 425.179077,390.248901 
	C418.716644,390.248901 412.528961,390.248901 405.823090,390.248901 
	C405.823090,381.218231 405.823090,372.880981 405.823090,363.743835 
	C396.931976,374.723602 386.891724,382.800140 374.673523,389.379669 
M602.500122,480.004852 
	C607.914795,480.004852 613.329468,480.004852 618.510132,480.004852 
	C617.513733,475.722656 615.949036,471.906250 615.848450,468.051636 
	C615.457520,453.068146 615.371277,438.070984 615.510010,423.082062 
	C615.567200,416.906738 618.788391,413.929169 625.029907,412.865448 
	C632.640869,411.568390 639.462646,413.447662 645.523560,418.085602 
	C647.313293,410.913696 648.711792,403.876129 650.899292,397.093018 
	C652.170532,393.151306 650.685547,391.668579 647.529541,390.313049 
	C637.371948,385.950195 626.749146,390.156036 620.220825,401.310547 
	C618.783203,403.766724 617.586365,406.363861 616.278687,408.896088 
	C615.963684,408.815125 615.648743,408.734161 615.333801,408.653198 
	C615.333801,402.228424 615.333801,395.803619 615.333801,389.923920 
	C602.785400,394.733795 590.484741,399.448669 579.241150,403.758392 
	C585.303833,405.658203 588.622437,410.014648 588.954468,418.720184 
	C589.227417,425.875366 589.350647,433.060547 589.025696,440.209045 
	C588.423645,453.452911 591.445618,466.989288 585.578125,480.004852 
	C591.179810,480.004852 596.341125,480.004852 602.500122,480.004852 
M523.565979,559.011292 
	C526.866699,557.448059 524.838562,557.093994 523.127014,556.034363 
	C521.789856,555.206543 520.297852,553.558655 520.127747,552.126282 
	C519.701599,548.538574 519.987061,544.866333 519.987061,541.795227 
	C531.830811,539.070801 532.624939,549.441528 537.411743,555.232910 
	C536.181458,556.341553 535.303406,557.132751 533.916931,558.382141 
	C539.871521,558.382141 545.015320,558.382141 549.074341,558.382141 
	C544.973633,552.685059 540.822571,546.918030 536.431580,540.817749 
	C542.894226,537.967712 546.515991,533.788025 545.683167,527.070374 
	C544.847412,520.328918 540.561523,515.635132 534.285095,514.736450 
	C525.521729,513.481628 516.527405,513.838989 507.630524,513.547485 
	C507.558807,513.545044 507.468384,514.112244 507.276306,514.820618 
	C512.669067,515.593567 512.245544,519.576965 512.144897,523.621948 
	C511.983398,530.116577 512.416321,536.638184 512.003174,543.110474 
	C511.665436,548.401489 515.257080,555.089966 506.429901,557.925476 
	C506.784424,558.290405 507.138916,558.655396 507.493439,559.020386 
	C512.574585,559.020386 517.655701,559.020386 523.565979,559.011292 
M592.683594,558.366821 
	C603.137573,553.037048 607.446350,544.483826 605.981323,531.970154 
	C604.713867,521.144470 596.262573,512.870422 585.638306,512.053833 
	C573.304749,511.105896 563.877747,517.250732 560.993408,528.391968 
	C558.546631,537.843323 559.871765,546.721313 566.955505,553.810547 
	C574.035583,560.895996 582.795532,561.402283 592.683594,558.366821 
M494.890808,529.465637 
	C493.760040,520.739258 489.686035,515.494873 481.136536,514.127563 
	C473.983246,512.983459 466.596100,513.278442 459.309418,513.024658 
	C458.500641,512.996521 457.671722,513.547119 455.042114,514.452576 
	C463.287598,515.685730 461.744446,520.683167 461.770660,524.933960 
	C461.810699,531.419312 461.965973,537.911987 461.721222,544.388367 
	C461.534332,549.333496 464.241760,555.436401 457.096161,558.459595 
	C463.262482,558.459595 469.428833,558.459595 475.595154,558.459595 
	C465.481171,555.761780 470.757812,548.227661 469.532776,542.653442 
	C486.551300,544.224304 492.664734,541.134949 494.890808,529.465637 
M686.902893,384.821350 
	C698.568970,384.279083 709.439941,381.974884 717.075134,371.657318 
	C715.388184,370.106415 714.081848,368.905426 712.650757,367.589783 
	C704.942200,376.579010 694.996704,378.725525 682.452698,377.960724 
	C684.049194,380.991455 685.052795,382.896759 686.902893,384.821350 
z"/>
<path fill="#587BFC" opacity="1.000000" stroke="none" 
	d="
M283.061218,358.877991 
	C289.605011,361.713165 292.262787,366.058350 291.821716,373.149658 
	C291.205109,383.063232 291.666199,393.043823 291.666199,403.141663 
	C306.002106,401.370789 318.335846,395.748749 330.762207,388.883759 
	C330.762207,396.192413 330.762207,403.066681 330.762207,409.940948 
	C331.025940,410.016907 331.289642,410.092834 331.553375,410.168793 
	C333.016235,407.237396 334.333405,404.221954 335.968414,401.389954 
	C341.499054,391.810425 349.235352,387.560883 358.404480,388.973389 
	C359.871124,389.199310 361.313110,389.657379 362.729950,390.120117 
	C366.454254,391.336426 367.872711,393.222748 366.442261,397.560211 
	C364.277710,404.123871 363.057037,410.998810 361.347717,418.105682 
	C354.945648,413.274750 347.918060,411.490814 340.166809,412.952148 
	C335.257751,413.877655 331.409698,416.549469 331.350769,421.686920 
	C331.167480,437.663330 331.363953,453.649414 331.764740,469.622925 
	C331.848846,472.974579 333.433899,476.288574 334.371002,479.782776 
	C323.544098,479.782776 312.515472,479.782776 302.534760,479.782776 
	C303.342590,473.260071 304.654724,466.776489 304.844086,460.260254 
	C305.211761,447.608521 305.092499,434.935791 304.858795,422.277588 
	C304.789368,418.516968 304.111023,414.625549 302.913269,411.062469 
	C301.290070,406.233948 297.644165,403.549500 292.276276,403.772614 
	C289.999969,415.457245 291.855286,470.518768 294.872131,479.814178 
	C283.038177,479.814178 271.264038,479.814178 259.142975,479.814178 
	C264.835388,468.106262 262.233551,455.776917 262.897491,443.384644 
	C251.377411,443.384644 240.448532,443.384644 228.881500,443.384644 
	C229.954651,456.819733 235.228516,468.512939 243.030380,479.753479 
	C231.073196,479.753479 219.676788,479.753479 207.975220,479.753479 
	C201.473022,462.352356 198.454330,444.278748 199.028793,425.607971 
	C199.548950,408.701660 204.436707,393.223724 214.461868,379.490845 
	C230.483124,357.544342 259.434082,348.751648 283.061218,358.877991 
M262.915741,391.533264 
	C262.915741,388.102509 262.915741,384.671753 262.915741,381.271240 
	C241.791824,380.701538 230.554871,402.017303 229.172211,418.644348 
	C240.249344,418.644348 251.309006,418.644348 262.913666,418.644348 
	C262.913666,409.759583 262.913666,401.142181 262.915741,391.533264 
z"/>
<path fill="#587BFC" opacity="1.000000" stroke="none" 
	d="
M533.232544,481.823242 
	C503.917419,478.578796 484.190216,461.378143 478.177582,434.208344 
	C471.849731,405.614136 482.681488,377.322693 505.297607,363.373322 
	C525.259216,351.061218 557.729553,352.103882 576.011902,365.350830 
	C580.360413,368.501709 582.240967,371.280792 579.532104,376.740326 
	C576.904785,382.035492 575.509094,387.941772 573.389221,394.113098 
	C564.694214,383.275238 553.416199,378.485687 539.965698,379.209442 
	C530.348206,379.726959 521.812500,383.097870 515.069702,390.320801 
	C501.909271,404.418365 501.984314,432.331024 515.251282,446.396759 
	C529.811096,461.833191 552.228088,460.547424 573.476074,442.969940 
	C575.939209,449.839417 578.560181,456.609985 580.684509,463.532959 
	C581.104126,464.900696 580.087524,467.355896 578.925598,468.457916 
	C571.019287,475.956482 561.165955,479.427856 550.625488,480.896851 
	C545.048523,481.674072 539.346924,481.556702 533.232544,481.823242 
z"/>
<path fill="#587BFC" opacity="1.000000" stroke="none" 
	d="
M829.730713,467.291443 
	C830.984619,467.722656 831.895203,468.017090 833.730713,468.610626 
	C825.263489,473.013641 817.501892,477.101318 809.690002,481.090271 
	C805.747498,483.103424 802.460754,481.317780 800.871460,477.977112 
	C798.992676,474.027985 797.797424,469.607971 797.140320,465.265839 
	C796.527710,461.217926 797.009460,457.004456 796.158752,452.437866 
	C792.097961,458.744507 787.603271,464.818878 784.075073,471.410645 
	C778.374329,482.061340 767.821228,483.190063 759.796936,480.941345 
	C750.916077,478.452576 745.530457,471.108917 745.044739,460.691437 
	C744.437500,447.665009 751.877930,436.361420 765.154907,430.140045 
	C774.300415,425.854584 782.360962,425.283875 795.271667,428.007721 
	C794.997925,422.051575 790.744568,416.565063 784.543701,414.169586 
	C774.949829,410.463379 765.188782,413.324951 755.430725,422.682800 
	C751.368286,416.235474 747.300720,409.780029 743.060913,403.051270 
	C749.153442,395.411377 757.378052,390.944183 766.992737,389.412842 
	C779.775879,387.376892 792.266479,388.749268 803.826233,395.037659 
	C816.241882,401.791656 822.979126,412.164490 823.137817,426.511505 
	C823.250122,436.667236 823.246460,446.826874 823.564392,456.976349 
	C823.697266,461.217926 824.774963,465.295624 829.730713,467.291443 
M791.474609,429.899384 
	C783.714111,430.079376 778.458252,434.269836 774.699951,440.622833 
	C771.388794,446.220062 771.422119,451.367035 774.508850,454.482513 
	C777.762695,457.766663 783.989014,457.812042 789.328735,454.525909 
	C790.451477,453.834900 791.429077,452.912079 792.500916,452.133759 
	C798.582214,447.718018 796.672546,441.208679 797.023438,435.247559 
	C797.229492,431.747070 795.988098,429.869507 791.474609,429.899384 
z"/>
<path fill="#587BFC" opacity="1.000000" stroke="none" 
	d="
M711.431091,441.588867 
	C703.700256,441.665161 696.414062,441.665161 688.539185,441.665161 
	C689.888306,448.469849 693.038086,452.907288 698.776123,454.983490 
	C708.971252,458.672424 716.907410,454.914062 722.922729,446.623230 
	C728.274658,452.595154 733.349121,458.257446 738.448547,463.947632 
	C731.409424,476.585205 714.764099,483.992706 698.598206,481.605469 
	C675.795593,478.238159 661.939758,462.706116 660.983704,439.555542 
	C660.622559,430.809601 661.440918,422.296814 664.866577,414.125610 
	C673.906067,392.564484 701.555725,381.973816 722.255737,392.198364 
	C733.246826,397.627319 739.823608,408.222137 738.558777,418.461945 
	C737.109436,430.195099 729.428955,437.911652 716.307556,440.778198 
	C714.846558,441.097382 713.353760,441.271301 711.431091,441.588867 
M688.130554,430.109528 
	C688.130554,433.404755 688.130554,436.700012 688.130554,440.886047 
	C692.366516,439.351257 696.194580,438.282501 699.736511,436.608337 
	C705.420715,433.921417 710.667236,430.221191 712.277283,423.869812 
	C713.024170,420.923218 712.476196,416.439240 710.607422,414.404449 
	C708.983582,412.636475 704.370544,412.318695 701.607178,413.139557 
	C693.850403,415.443726 690.231018,421.801208 688.130554,430.109528 
z"/>
<path fill="#587BFC" opacity="1.000000" stroke="none" 
	d="
M375.017578,389.217957 
	C386.891724,382.800140 396.931976,374.723602 405.823090,363.743835 
	C405.823090,372.880981 405.823090,381.218231 405.823090,390.248901 
	C412.528961,390.248901 418.716644,390.248901 425.179077,390.248901 
	C425.179077,398.698303 425.179077,406.448120 425.179077,414.642822 
	C419.007080,414.642822 412.927277,414.642822 406.079376,414.642822 
	C406.079376,420.804413 406.015503,426.555023 406.097473,432.303528 
	C406.178040,437.954926 405.948578,443.663940 406.675354,449.240784 
	C407.823578,458.051270 414.604767,460.977051 422.391846,456.465759 
	C423.222229,455.984680 424.003082,455.418091 425.062775,454.723419 
	C426.522614,461.057648 428.071930,467.106262 429.184479,473.234192 
	C429.382690,474.326050 428.071167,476.201904 426.947174,476.948212 
	C406.564331,490.481781 381.803131,478.437256 380.320099,454.048309 
	C379.644043,442.929962 380.081665,431.743805 380.017822,420.588409 
	C380.007568,418.800018 380.016388,417.011505 380.016388,415.074738 
	C377.393463,414.935425 375.267731,414.822540 372.478424,414.674377 
	C372.478424,407.008240 372.411285,399.408325 372.574768,391.813354 
	C372.592529,390.987427 373.941833,390.190216 375.017578,389.217957 
z"/>
<path fill="#587BFC" opacity="1.000000" stroke="none" 
	d="
M602.001282,480.004852 
	C596.341125,480.004852 591.179810,480.004852 585.578125,480.004852 
	C591.445618,466.989288 588.423645,453.452911 589.025696,440.209045 
	C589.350647,433.060547 589.227417,425.875366 588.954468,418.720184 
	C588.622437,410.014648 585.303833,405.658203 579.241150,403.758392 
	C590.484741,399.448669 602.785400,394.733795 615.333801,389.923920 
	C615.333801,395.803619 615.333801,402.228424 615.333801,408.653198 
	C615.648743,408.734161 615.963684,408.815125 616.278687,408.896088 
	C617.586365,406.363861 618.783203,403.766724 620.220825,401.310547 
	C626.749146,390.156036 637.371948,385.950195 647.529541,390.313049 
	C650.685547,391.668579 652.170532,393.151306 650.899292,397.093018 
	C648.711792,403.876129 647.313293,410.913696 645.523560,418.085602 
	C639.462646,413.447662 632.640869,411.568390 625.029907,412.865448 
	C618.788391,413.929169 615.567200,416.906738 615.510010,423.082062 
	C615.371277,438.070984 615.457520,453.068146 615.848450,468.051636 
	C615.949036,471.906250 617.513733,475.722656 618.510132,480.004852 
	C613.329468,480.004852 607.914795,480.004852 602.001282,480.004852 
z"/>
<path fill="#F4F4F4" opacity="1.000000" stroke="none" 
	d="
M523.151367,559.015869 
	C517.655701,559.020386 512.574585,559.020386 507.493439,559.020386 
	C507.138916,558.655396 506.784424,558.290405 506.429901,557.925476 
	C515.257080,555.089966 511.665436,548.401489 512.003174,543.110474 
	C512.416321,536.638184 511.983398,530.116577 512.144897,523.621948 
	C512.245544,519.576965 512.669067,515.593567 507.276306,514.820618 
	C507.468384,514.112244 507.558807,513.545044 507.630524,513.547485 
	C516.527405,513.838989 525.521729,513.481628 534.285095,514.736450 
	C540.561523,515.635132 544.847412,520.328918 545.683167,527.070374 
	C546.515991,533.788025 542.894226,537.967712 536.431580,540.817749 
	C540.822571,546.918030 544.973633,552.685059 549.074341,558.382141 
	C545.015320,558.382141 539.871521,558.382141 533.916931,558.382141 
	C535.303406,557.132751 536.181458,556.341553 537.411743,555.232910 
	C532.624939,549.441528 531.830811,539.070801 519.987061,541.795227 
	C519.987061,544.866333 519.701599,548.538574 520.127747,552.126282 
	C520.297852,553.558655 521.789856,555.206543 523.127014,556.034363 
	C524.838562,557.093994 526.866699,557.448059 523.151367,559.015869 
M535.539978,521.328064 
	C531.742981,516.075073 526.325623,515.346619 520.281860,515.845154 
	C520.281860,523.314880 520.281860,530.706055 520.281860,538.433838 
	C525.656189,539.229248 530.967468,540.495117 534.999390,536.032288 
	C538.790833,531.835571 538.207214,526.873718 535.539978,521.328064 
z"/>
<path fill="#F4F4F4" opacity="1.000000" stroke="none" 
	d="
M592.337524,558.540649 
	C582.795532,561.402283 574.035583,560.895996 566.955505,553.810547 
	C559.871765,546.721313 558.546631,537.843323 560.993408,528.391968 
	C563.877747,517.250732 573.304749,511.105896 585.638306,512.053833 
	C596.262573,512.870422 604.713867,521.144470 605.981323,531.970154 
	C607.446350,544.483826 603.137573,553.037048 592.337524,558.540649 
M568.024902,530.718811 
	C568.040344,538.554565 569.541626,545.967529 574.809021,552.083313 
	C581.254089,559.566345 591.649597,558.732422 596.071655,550.508545 
	C601.002258,541.338867 597.461975,524.376282 589.283020,517.982239 
	C581.986023,512.277710 572.590088,514.855286 569.415894,523.538940 
	C568.685120,525.538147 568.499023,527.736511 568.024902,530.718811 
z"/>
<path fill="#F4F4F4" opacity="1.000000" stroke="none" 
	d="
M494.872803,529.878418 
	C492.664734,541.134949 486.551300,544.224304 469.532776,542.653442 
	C470.757812,548.227661 465.481171,555.761780 475.595154,558.459595 
	C469.428833,558.459595 463.262482,558.459595 457.096161,558.459595 
	C464.241760,555.436401 461.534332,549.333496 461.721222,544.388367 
	C461.965973,537.911987 461.810699,531.419312 461.770660,524.933960 
	C461.744446,520.683167 463.287598,515.685730 455.042114,514.452576 
	C457.671722,513.547119 458.500641,512.996521 459.309418,513.024658 
	C466.596100,513.278442 473.983246,512.983459 481.136536,514.127563 
	C489.686035,515.494873 493.760040,520.739258 494.872803,529.878418 
M478.314301,516.635193 
	C475.469452,516.340149 472.624603,516.045105 469.590240,515.730469 
	C469.590240,523.064636 469.512695,529.538269 469.656189,536.007080 
	C469.684631,537.289490 470.198029,539.227173 471.105804,539.716858 
	C477.391449,543.106812 486.082611,538.208801 486.959595,530.982605 
	C487.718658,524.727905 485.177063,520.189575 478.314301,516.635193 
z"/>
<path fill="#587BFC" opacity="1.000000" stroke="none" 
	d="
M686.479614,384.811707 
	C685.052795,382.896759 684.049194,380.991455 682.452698,377.960724 
	C694.996704,378.725525 704.942200,376.579010 712.650757,367.589783 
	C714.081848,368.905426 715.388184,370.106415 717.075134,371.657318 
	C709.439941,381.974884 698.568970,384.279083 686.479614,384.811707 
z"/>
<path fill="#000000" opacity="1.000000" stroke="none" 
	d="
M262.914703,392.028992 
	C262.913666,401.142181 262.913666,409.759583 262.913666,418.644348 
	C251.309006,418.644348 240.249344,418.644348 229.172211,418.644348 
	C230.554871,402.017303 241.791824,380.701538 262.915741,381.271240 
	C262.915741,384.671753 262.915741,388.102509 262.914703,392.028992 
z"/>
<path fill="#000000" opacity="1.000000" stroke="none" 
	d="
M791.906738,429.920807 
	C795.988098,429.869507 797.229492,431.747070 797.023438,435.247559 
	C796.672546,441.208679 798.582214,447.718018 792.500916,452.133759 
	C791.429077,452.912079 790.451477,453.834900 789.328735,454.525909 
	C783.989014,457.812042 777.762695,457.766663 774.508850,454.482513 
	C771.422119,451.367035 771.388794,446.220062 774.699951,440.622833 
	C778.458252,434.269836 783.714111,430.079376 791.906738,429.920807 
z"/>
<path fill="#000000" opacity="1.000000" stroke="none" 
	d="
M688.222412,429.686951 
	C690.231018,421.801208 693.850403,415.443726 701.607178,413.139557 
	C704.370544,412.318695 708.983582,412.636475 710.607422,414.404449 
	C712.476196,416.439240 713.024170,420.923218 712.277283,423.869812 
	C710.667236,430.221191 705.420715,433.921417 699.736511,436.608337 
	C696.194580,438.282501 692.366516,439.351257 688.130554,440.886047 
	C688.130554,436.700012 688.130554,433.404755 688.222412,429.686951 
z"/>
<path fill="#000000" opacity="1.000000" stroke="none" 
	d="
M535.735962,521.677551 
	C538.207214,526.873718 538.790833,531.835571 534.999390,536.032288 
	C530.967468,540.495117 525.656189,539.229248 520.281860,538.433838 
	C520.281860,530.706055 520.281860,523.314880 520.281860,515.845154 
	C526.325623,515.346619 531.742981,516.075073 535.735962,521.677551 
z"/>
<path fill="#000000" opacity="1.000000" stroke="none" 
	d="
M568.043579,530.281006 
	C568.499023,527.736511 568.685120,525.538147 569.415894,523.538940 
	C572.590088,514.855286 581.986023,512.277710 589.283020,517.982239 
	C597.461975,524.376282 601.002258,541.338867 596.071655,550.508545 
	C591.649597,558.732422 581.254089,559.566345 574.809021,552.083313 
	C569.541626,545.967529 568.040344,538.554565 568.043579,530.281006 
z"/>
<path fill="#000000" opacity="1.000000" stroke="none" 
	d="
M478.696930,516.773560 
	C485.177063,520.189575 487.718658,524.727905 486.959595,530.982605 
	C486.082611,538.208801 477.391449,543.106812 471.105804,539.716858 
	C470.198029,539.227173 469.684631,537.289490 469.656189,536.007080 
	C469.512695,529.538269 469.590240,523.064636 469.590240,515.730469 
	C472.624603,516.045105 475.469452,516.340149 478.696930,516.773560 
z"/>
</svg>